<svg width="31" height="25" viewBox="0 0 31 25" fill="none" xmlns="http://www.w3.org/2000/svg">
<path d="M30.0485 3.66816C28.9214 4.15789 27.7289 4.48054 26.5086 4.6259C27.791 3.87497 28.7555 2.68197 29.221 1.27066C28.0085 1.97964 26.6842 2.47709 25.3049 2.74171C24.724 2.13296 24.0255 1.64869 23.2516 1.31833C22.4778 0.98796 21.6449 0.818402 20.8035 0.819957C17.3969 0.819957 14.6401 3.5367 14.6401 6.88568C14.6377 7.35152 14.691 7.81596 14.7991 8.2691C12.3563 8.15458 9.96436 7.53143 7.77622 6.43952C5.58809 5.34761 3.65197 3.81098 2.09173 1.92794C1.54436 2.8507 1.25488 3.90355 1.25354 4.97645C1.25354 7.07974 2.35088 8.93889 4.00785 10.0281C3.02614 10.0048 2.06455 9.74497 1.20472 9.27066V9.34578C1.20472 12.2879 3.33304 14.7355 6.14994 15.2926C5.62023 15.4338 5.07437 15.5053 4.52616 15.5054C4.13716 15.5061 3.74905 15.4683 3.36747 15.3927C4.15057 17.8027 6.42976 19.5555 9.1296 19.6056C6.93578 21.2963 4.24235 22.2101 1.47264 22.2034C0.981003 22.2026 0.489828 22.1734 0.00158691 22.1157C2.81923 23.9149 6.09451 24.8666 9.43758 24.8575C20.7903 24.8575 26.9925 15.6118 26.9925 7.59304C26.9925 7.33013 26.9856 7.06722 26.9731 6.81057C28.1769 5.95427 29.2184 4.89014 30.0485 3.66816Z" fill="white"/>
</svg>
